<svg width="118" height="118" viewBox="0 0 118 118" fill="none" xmlns="http://www.w3.org/2000/svg">
<g clip-path="url(#clip0_1558_77)">
<path d="M2.14801 1.02014H115.503H116.63V2.14765V115.502V116.643H115.503H2.14801H1.02051V115.502V2.14765V1.02014H2.14801Z" stroke="#272E31" stroke-width="1.52" stroke-miterlimit="10"/>
<path d="M64.8589 39.3017C59.2617 35.0064 52.6577 33.2212 52.6577 33.2212C52.6577 33.2212 57.1677 38.0534 52.2819 47.1405C47.7584 55.5566 40.3088 60.2277 40.3088 68.8316C40.3088 68.8316 40.0269 73.3953 42.2014 77.8785C44.698 83.0328 49.6644 87.2744 55.8389 88.6704C53.7718 85.7577 53.0738 82.751 53.2215 80.1067C53.4631 75.2611 56.1476 70.8316 60.3221 65.5968C64.6844 71.0464 67.3958 75.6369 67.4361 80.7376C67.4495 83.1402 66.8321 85.6368 65.1542 88.4422C70.4562 87.0194 75.7313 83.61 77.8119 79.8517C79.1675 77.3953 80.738 75.2074 80.8722 68.9927C81.2346 52.0398 69.7985 43.0869 64.8724 39.3017" fill="#272E31"/>
<path d="M60.4697 100.375H60.416C53.4765 98.5092 30.4968 90.5495 30.4968 66.4558V31.3689C41.745 30.4427 52.1342 26.4293 60.4428 19.7851C68.7649 26.4159 79.1407 30.4427 90.3889 31.3689V66.4558C90.3889 90.5495 67.4092 98.5226 60.4697 100.375ZM99.6103 22.3756L95.0331 22.3354C82.8722 22.2414 71.7179 17.973 63.6106 10.3086L60.4428 7.31537L57.2751 10.3086C49.1678 17.973 38.0001 22.2414 25.8525 22.3354L21.2754 22.3756V66.4558C21.2754 72.147 23.1009 101.006 59.3556 109.623L60.416 109.878H60.4697L61.5435 109.623C97.7848 101.006 99.6237 72.147 99.6237 66.4558V22.3756H99.6103Z" fill="#272E31"/>
</g>
<defs>
<clipPath id="clip0_1558_77">
<rect width="117.65" height="117.663" fill="white"/>
</clipPath>
</defs>
</svg>
