<svg width="88" height="87" viewBox="0 0 88 87" fill="none" xmlns="http://www.w3.org/2000/svg">
<g clip-path="url(#clip0_1768_582)">
<mask id="mask0_1768_582" style="mask-type:luminance" maskUnits="userSpaceOnUse" x="-113" y="-135" width="201" height="395">
<path d="M87.444 -135H-112.999V259.409H87.444V-135Z" fill="white"/>
</mask>
<g mask="url(#mask0_1768_582)">
<path d="M1.91901 0.669983H85.799H86.637V1.50998V85.388V86.229H85.799H1.91901H1.08301V85.388V1.50998V0.669983H1.91901Z" stroke="#272E31" stroke-width="1.5079" stroke-miterlimit="10"/>
</g>
<mask id="mask1_1768_582" style="mask-type:luminance" maskUnits="userSpaceOnUse" x="-113" y="-135" width="201" height="395">
<path d="M87.444 -135H-112.999V259.409H87.444V-135Z" fill="white"/>
</mask>
<g mask="url(#mask1_1768_582)">
<path d="M20.3594 65.83H13.7324V69.241L7.10938 62.417L13.7324 55.592V59.003H20.3594V65.83Z" fill="#272E31"/>
</g>
<mask id="mask2_1768_582" style="mask-type:luminance" maskUnits="userSpaceOnUse" x="-113" y="-135" width="201" height="395">
<path d="M87.444 -135H-112.999V259.409H87.444V-135Z" fill="white"/>
</mask>
<g mask="url(#mask2_1768_582)">
<path d="M69.7607 45.039C69.6117 44.914 69.5417 44.812 69.3987 44.686L67.1237 42.689C66.9747 42.564 66.9047 42.46 66.7617 42.334L65.2347 41.011C64.5287 40.441 62.9377 38.876 62.1937 38.28C61.8857 38.032 61.6977 37.834 61.3897 37.587L47.3257 25.064C47.1377 24.918 47.1107 24.896 46.9487 24.731L46.1467 24.035C45.8857 24.21 45.6127 24.482 45.3647 24.677C43.6907 25.979 41.4147 28.076 39.7027 29.422C38.2167 30.59 36.3257 32.33 34.8557 33.484L33.2267 34.852C32.6997 35.322 32.1717 35.713 31.6277 36.171L27.5607 39.59C27.2847 39.839 27.0167 40.026 26.7427 40.269L21.0887 45.018C20.8577 45.199 20.3447 45.569 20.3447 45.773V72.926C20.3447 73.868 20.9937 74.229 21.8227 74.353L49.5117 74.306V55.59H61.0627V74.291L68.4567 74.283C69.6207 74.283 70.4517 73.645 70.4517 72.5V45.773C70.4517 45.518 69.9437 45.192 69.7607 45.039ZM26.9847 69.24V65.829H20.3597V59.004H26.9847V55.59L33.6097 62.415L26.9847 69.24Z" fill="#272E31"/>
</g>
<mask id="mask3_1768_582" style="mask-type:luminance" maskUnits="userSpaceOnUse" x="-113" y="-135" width="201" height="395">
<path d="M87.444 -135H-112.999V259.409H87.444V-135Z" fill="white"/>
</mask>
<g mask="url(#mask3_1768_582)">
<path d="M65.6032 27.317C65.5922 28.106 65.7242 27.951 66.7282 28.827L72.0902 33.372C72.2642 33.512 72.2982 33.6 72.5172 33.659V19.473H65.5332V22.113C65.5332 23.061 65.6072 23.765 65.6072 24.68C65.6072 25.556 65.6142 26.439 65.6032 27.317Z" fill="#272E31"/>
</g>
<mask id="mask4_1768_582" style="mask-type:luminance" maskUnits="userSpaceOnUse" x="-113" y="-135" width="201" height="395">
<path d="M87.444 -135H-112.999V259.409H87.444V-135Z" fill="white"/>
</mask>
<g mask="url(#mask4_1768_582)">
<path d="M74.3412 37.679C73.5802 37.092 72.9052 36.343 72.1782 35.707L69.5052 33.319C69.2922 33.117 69.1842 32.977 68.9542 32.802L64.1262 28.438C63.8942 28.204 63.8052 28.143 63.5602 27.936C62.5032 27.051 60.8932 25.401 59.8212 24.544L58.7432 23.555C58.5352 23.34 58.4142 23.281 58.2072 23.091L53.9262 19.178C53.6862 18.984 53.6182 18.923 53.4012 18.706L49.6192 15.286C49.4192 15.084 49.2882 15.029 49.0832 14.825L46.3612 12.347C45.9912 12.666 45.6442 12.985 45.2742 13.327C45.0762 13.512 44.9512 13.587 44.7402 13.791C44.2222 14.293 43.5832 14.746 43.0622 15.25L36.3992 21.133C36.1972 21.33 36.0722 21.381 35.8632 21.594L34.5112 22.802C33.7512 23.438 32.6372 24.518 31.9612 25.033L30.0212 26.728C29.9042 26.828 29.8572 26.905 29.7322 27.007L25.2822 30.899C24.5382 31.526 23.8262 32.279 23.0542 32.872C22.6922 33.147 22.3302 33.542 21.9602 33.849L18.6152 36.773C18.4072 36.979 18.2792 37.054 18.0792 37.239L17.5132 37.741C16.3632 38.708 15.3462 39.723 14.1932 40.693L12.5222 42.156C12.3182 42.356 12.1732 42.443 11.9522 42.656C11.7412 42.86 11.6032 42.932 11.3822 43.153C11.2262 43.311 10.8652 43.46 10.8652 43.706C10.8652 44.161 12.3862 45.489 13.7872 45.489C15.1872 45.489 16.2582 44.857 17.2502 44.176L18.2772 43.349C19.5532 42.362 22.0372 40.195 23.1792 39.2C24.8102 37.781 26.5202 36.463 28.1302 35.027L33.5302 30.452C33.7242 30.301 33.8362 30.171 34.0282 30.02L38.4662 26.264C38.6282 26.114 38.7602 26.024 38.9302 25.871L41.4012 23.78C41.7762 23.487 42.0422 23.223 42.4092 22.936C42.7602 22.662 43.0352 22.396 43.3772 22.126L46.3612 19.616L51.0362 23.78C51.6672 24.27 52.2912 24.944 52.8992 25.48L53.8622 26.299C54.0262 26.445 54.1222 26.579 54.2922 26.724L61.3682 33.047C61.8572 33.423 62.2312 33.878 62.7252 34.259L64.1582 35.531C64.3302 35.673 64.4242 35.809 64.5922 35.954C64.7902 36.135 64.8882 36.178 65.0872 36.384C65.9702 37.286 67.0232 38.011 67.9032 38.912C68.0972 39.112 68.1612 39.14 68.3632 39.31C68.5542 39.468 68.6312 39.593 68.8412 39.757L72.6102 43.117C74.2052 44.668 77.3022 46.141 79.4732 44.819C79.9242 44.542 80.5922 44.03 80.7172 43.491L74.3412 37.679Z" fill="#272E31"/>
</g>
</g>
<defs>
<clipPath id="clip0_1768_582">
<rect width="88" height="87" fill="white"/>
</clipPath>
</defs>
</svg>
