<svg width="87" height="87" viewBox="0 0 87 87" fill="none" xmlns="http://www.w3.org/2000/svg">
<g clip-path="url(#clip0_1768_585)">
<mask id="mask0_1768_585" style="mask-type:luminance" maskUnits="userSpaceOnUse" x="0" y="0" width="201" height="395">
<path d="M200.444 0H0.000976562V394.409H200.444V0Z" fill="white"/>
</mask>
<g mask="url(#mask0_1768_585)">
<path d="M85.4709 0.753998H1.59288H0.754883V1.594V85.47V86.308H1.59288H85.4709H86.3069V85.47V1.594V0.753998H85.4709Z" stroke="#272E31" stroke-width="1.5079" stroke-miterlimit="10"/>
</g>
<mask id="mask1_1768_585" style="mask-type:luminance" maskUnits="userSpaceOnUse" x="0" y="0" width="201" height="395">
<path d="M200.444 0H0.000976562V394.409H200.444V0Z" fill="white"/>
</mask>
<g mask="url(#mask1_1768_585)">
<path d="M23.7847 26.011H8.01074V41.785H23.7847V26.011Z" fill="#272E31"/>
</g>
<mask id="mask2_1768_585" style="mask-type:luminance" maskUnits="userSpaceOnUse" x="0" y="0" width="201" height="395">
<path d="M200.444 0H0.000976562V394.409H200.444V0Z" fill="white"/>
</mask>
<g mask="url(#mask2_1768_585)">
<path d="M23.7847 44.508H8.01074V60.28H23.7847V44.508Z" fill="#272E31"/>
</g>
<mask id="mask3_1768_585" style="mask-type:luminance" maskUnits="userSpaceOnUse" x="0" y="0" width="201" height="395">
<path d="M200.444 0H0.000976562V394.409H200.444V0Z" fill="white"/>
</mask>
<g mask="url(#mask3_1768_585)">
<path d="M23.7847 62.998H8.01074V78.768H23.7847V62.998Z" fill="#272E31"/>
</g>
<mask id="mask4_1768_585" style="mask-type:luminance" maskUnits="userSpaceOnUse" x="0" y="0" width="201" height="395">
<path d="M200.444 0H0.000976562V394.409H200.444V0Z" fill="white"/>
</mask>
<g mask="url(#mask4_1768_585)">
<path d="M42.278 62.998H26.499V78.768H42.278V62.998Z" fill="#272E31"/>
</g>
<mask id="mask5_1768_585" style="mask-type:luminance" maskUnits="userSpaceOnUse" x="0" y="0" width="201" height="395">
<path d="M200.444 0H0.000976562V394.409H200.444V0Z" fill="white"/>
</mask>
<g mask="url(#mask5_1768_585)">
<path d="M60.774 62.998H45V78.768H60.774V62.998Z" fill="#272E31"/>
</g>
<mask id="mask6_1768_585" style="mask-type:luminance" maskUnits="userSpaceOnUse" x="0" y="0" width="201" height="395">
<path d="M200.444 0H0.000976562V394.409H200.444V0Z" fill="white"/>
</mask>
<g mask="url(#mask6_1768_585)">
<path d="M42.9295 44.939H28.3525V59.516H42.9295V44.939Z" fill="#272E31"/>
</g>
<mask id="mask7_1768_585" style="mask-type:luminance" maskUnits="userSpaceOnUse" x="0" y="0" width="201" height="395">
<path d="M200.444 0H0.000976562V394.409H200.444V0Z" fill="white"/>
</mask>
<g mask="url(#mask7_1768_585)">
<path d="M75.4593 44.939H62.4033V58H75.4593V44.939Z" fill="#272E31"/>
</g>
<mask id="mask8_1768_585" style="mask-type:luminance" maskUnits="userSpaceOnUse" x="0" y="0" width="201" height="395">
<path d="M200.444 0H0.000976562V394.409H200.444V0Z" fill="white"/>
</mask>
<g mask="url(#mask8_1768_585)">
<path d="M42.382 16.115H29.334V29.167H42.382V16.115Z" fill="#272E31"/>
</g>
<mask id="mask9_1768_585" style="mask-type:luminance" maskUnits="userSpaceOnUse" x="0" y="0" width="201" height="395">
<path d="M200.444 0H0.000976562V394.409H200.444V0Z" fill="white"/>
</mask>
<g mask="url(#mask9_1768_585)">
<path d="M57.1815 33.189H45.9795V44.391H57.1815V33.189Z" fill="#272E31"/>
</g>
<mask id="mask10_1768_585" style="mask-type:luminance" maskUnits="userSpaceOnUse" x="0" y="0" width="201" height="395">
<path d="M200.444 0H0.000976562V394.409H200.444V0Z" fill="white"/>
</mask>
<g mask="url(#mask10_1768_585)">
<path d="M76.6534 24.595H67.1934V34.059H76.6534V24.595Z" fill="#272E31"/>
</g>
<mask id="mask11_1768_585" style="mask-type:luminance" maskUnits="userSpaceOnUse" x="0" y="0" width="201" height="395">
<path d="M200.444 0H0.000976562V394.409H200.444V0Z" fill="white"/>
</mask>
<g mask="url(#mask11_1768_585)">
<path d="M61.0988 14.916H51.6328V24.38H61.0988V14.916Z" fill="#272E31"/>
</g>
<mask id="mask12_1768_585" style="mask-type:luminance" maskUnits="userSpaceOnUse" x="0" y="0" width="201" height="395">
<path d="M200.444 0H0.000976562V394.409H200.444V0Z" fill="white"/>
</mask>
<g mask="url(#mask12_1768_585)">
<path d="M78.5067 8.06299H71.7627V14.807H78.5067V8.06299Z" fill="#272E31"/>
</g>
</g>
<defs>
<clipPath id="clip0_1768_585">
<rect width="87" height="87" fill="white"/>
</clipPath>
</defs>
</svg>
