<svg width="118" height="118" viewBox="0 0 118 118" fill="none" xmlns="http://www.w3.org/2000/svg">
<g clip-path="url(#clip0_1558_83)">
<path d="M80.8713 106.12H106.455V11.2617H80.8311V11.369L93.6632 27.1004L80.8311 42.8319V43.0466L93.6632 58.7646L80.8311 74.5094V74.7242L93.6632 90.4422L80.8713 106.12Z" fill="#272E31"/>
<path d="M69.4893 74.7242V74.5094L82.308 58.778L69.4893 43.06V42.8319L82.308 27.1004L69.4893 11.369V11.2617H57.9189V11.369L70.751 27.1004L57.9189 42.8319V43.06L70.751 58.778L57.9189 74.5094V74.7242L70.751 90.4422L57.9592 106.12H69.5296L82.308 90.4422L69.4893 74.7242Z" fill="#272E31"/>
<path d="M46.8851 74.7242V74.5094L59.7172 58.778L46.8851 43.06V42.8319L59.7172 27.1004L46.8851 11.369V11.2617H35.3281V11.369L48.1602 27.1004L35.3281 42.8319V43.06L48.1602 58.778L35.3281 74.5094V74.7242L48.1602 90.4422L35.3684 106.12H46.9388L59.7172 90.4422L46.8851 74.7242Z" fill="#272E31"/>
<path d="M11.1943 11.2617V58.6841V90.4288V106.12H24.0667L23.9996 106.053L36.7377 90.4288H36.8183V90.3214V90.3079V90.0932L24.0936 74.4826L36.8183 58.8586V58.6438L23.9996 42.9124L36.8183 27.181V26.9662L24.013 11.2617H11.1943Z" fill="#272E31"/>
<path d="M2.14801 1.02014H115.503H116.63V2.14765V115.502V116.643H115.503H2.14801H1.02051V115.502V2.14765V1.02014H2.14801Z" stroke="#272E31" stroke-width="1.52" stroke-miterlimit="10"/>
</g>
<defs>
<clipPath id="clip0_1558_83">
<rect width="117.65" height="117.663" fill="white"/>
</clipPath>
</defs>
</svg>
