<svg width="87" height="87" viewBox="0 0 87 87" fill="none" xmlns="http://www.w3.org/2000/svg">
<mask id="mask0_1768_369" style="mask-type:luminance" maskUnits="userSpaceOnUse" x="0" y="0" width="87" height="87">
<path d="M86.998 0H0V87H86.998V0Z" fill="white"/>
</mask>
<g mask="url(#mask0_1768_369)">
<path d="M1.584 1.19202H85.254H86.092V2.03204V85.697V86.535H85.254H1.584H0.75V85.697V2.03204V1.19202H1.584Z" stroke="#272E31" stroke-width="1.5041" stroke-miterlimit="10"/>
</g>
<mask id="mask1_1768_369" style="mask-type:luminance" maskUnits="userSpaceOnUse" x="0" y="0" width="87" height="87">
<path d="M86.998 0H0V87H86.998V0Z" fill="white"/>
</mask>
<g mask="url(#mask1_1768_369)">
<path d="M10.2695 45.069C15.6815 46.501 20.0765 46.925 24.6575 50.368C25.0515 50.667 25.0685 50.71 25.4035 51.043L26.8085 52.645C27.5085 53.5 27.9925 54.374 28.4735 55.477C30.0075 58.984 30.4045 61.037 31.2035 64.868L31.8825 68.668C31.9825 69.268 31.9145 69.595 32.2775 69.896C32.3245 67.514 34.2525 59.785 35.0015 57.605C36.2405 53.998 38.1945 50.99 41.3105 49.231C44.7405 47.292 48.0015 46.448 51.7905 45.589C52.6345 45.396 53.3835 45.273 54.1515 45.069C53.8295 44.84 48.4955 43.618 47.6025 43.363C46.8705 43.158 46.0755 42.878 45.3985 42.665C42.6785 41.811 40.2645 40.425 38.2175 38.325C37.6195 37.705 36.2745 35.539 35.8965 34.714C34.2805 31.154 33.3915 26.812 32.6885 22.821C32.5555 22.053 32.2925 20.88 32.2775 20.091C31.9145 20.39 31.9845 20.63 31.9105 21.196C31.3805 25.083 30.0375 31.243 28.5225 34.564C27.9965 35.718 27.0115 37.266 26.2055 38.178C22.8075 42.027 16.2885 43.737 11.3985 44.679C11.3555 44.683 10.8975 44.776 10.8335 44.795L10.2695 45.069Z" fill="#272E31"/>
</g>
<mask id="mask2_1768_369" style="mask-type:luminance" maskUnits="userSpaceOnUse" x="0" y="0" width="87" height="87">
<path d="M86.998 0H0V87H86.998V0Z" fill="white"/>
</mask>
<g mask="url(#mask2_1768_369)">
<path d="M52.8857 65.714C55.1237 66.306 57.7797 66.724 59.7957 67.952C60.3237 68.277 61.1187 68.909 61.5157 69.361C61.9057 69.802 62.4807 70.723 62.7567 71.312C63.0437 71.921 63.4187 73.02 63.6057 73.708C64.1697 75.801 64.2207 76.703 64.5747 78.551C64.7027 79.2 64.4647 78.839 64.8427 79.155C64.8777 77.365 66.0327 72.901 66.7767 71.268L67.8207 69.609C68.8177 68.376 70.2757 67.477 71.8767 66.978L75.4597 66.005C76.6377 65.746 76.3107 65.985 76.5717 65.584C75.7297 65.506 72.7087 64.698 71.8277 64.373C67.5657 62.799 66.2067 60.183 65.3257 55.081C65.1817 54.26 64.8567 53.034 64.8427 52.273C64.4797 52.574 64.3097 54.315 64.2057 54.912C62.7417 63.321 59.9137 63.775 54.1377 65.326L52.8857 65.714Z" fill="#272E31"/>
</g>
<mask id="mask3_1768_369" style="mask-type:luminance" maskUnits="userSpaceOnUse" x="0" y="0" width="87" height="87">
<path d="M86.998 0H0V87H86.998V0Z" fill="white"/>
</mask>
<g mask="url(#mask3_1768_369)">
<path d="M45.9082 21.484C48.0592 22.052 50.6092 22.453 52.5462 23.635C53.0532 23.943 53.8172 24.552 54.1972 24.987C54.5702 25.409 55.1262 26.295 55.3892 26.86C55.6672 27.447 56.0272 28.504 56.2032 29.164C56.7462 31.175 56.7952 32.038 57.1372 33.814C57.2582 34.438 57.0292 34.092 57.3912 34.397C57.4252 32.675 58.5352 28.387 59.2522 26.821L60.2512 25.226C61.2102 24.042 62.6102 23.179 64.1502 22.697L67.5912 21.762C68.7222 21.514 68.4102 21.745 68.6582 21.359C67.8502 21.282 64.9482 20.51 64.1062 20.196C60.0092 18.686 58.7052 16.17 57.8562 11.271C57.7202 10.48 57.4062 9.305 57.3912 8.573C57.0432 8.861 56.8802 10.533 56.7832 11.108C55.3762 19.184 52.6582 19.621 47.1112 21.111L45.9082 21.484Z" fill="#272E31"/>
</g>
</svg>
