<svg width="87" height="87" viewBox="0 0 87 87" fill="none" xmlns="http://www.w3.org/2000/svg">
<g clip-path="url(#clip0_1768_386)">
<mask id="mask0_1768_386" style="mask-type:luminance" maskUnits="userSpaceOnUse" x="0" y="0" width="200" height="393">
<path d="M199.352 0.00100708H0.00195312V392.263H199.352V0.00100708Z" fill="white"/>
</mask>
<g mask="url(#mask0_1768_386)">
<path d="M85.006 0.75H1.58398H0.750977V1.585V85.005V85.839H1.58398H85.006H85.837V85.005V1.585V0.75H85.006Z" stroke="#272E31" stroke-width="1.4997" stroke-miterlimit="10"/>
</g>
<mask id="mask1_1768_386" style="mask-type:luminance" maskUnits="userSpaceOnUse" x="0" y="0" width="200" height="393">
<path d="M199.352 0.00100708H0.00195312V392.263H199.352V0.00100708Z" fill="white"/>
</mask>
<g mask="url(#mask1_1768_386)">
<path d="M73.4011 43.5C73.2211 43.953 73.0141 44.38 72.7581 44.78L72.1451 45.632C72.0661 45.74 72.0071 45.795 71.9461 45.886C72.0011 46.129 72.0681 46.307 72.1341 46.563C72.7941 49.004 72.5721 51.347 71.1651 53.48C71.1021 53.583 70.8921 53.816 70.8921 53.936C70.8921 53.939 71.2121 55.284 71.2121 56.041C71.2121 57.962 70.4881 59.855 69.3291 61.293C69.1011 61.579 68.8701 61.63 68.8741 62.074C68.8911 63.611 68.8981 64.669 68.3981 66.122C68.0941 67.004 67.6731 67.842 67.0601 68.538C66.2141 69.5 65.3781 70.171 64.1791 70.689C63.7561 70.873 63.4231 70.964 62.9601 71.116L62.3021 71.279C61.5731 71.425 60.8771 71.546 60.0941 71.546H53.9181C52.7651 71.546 51.6971 71.381 50.6071 71.197C50.0451 71.101 49.5601 71.015 49.0591 70.915C48.7841 70.865 48.5831 70.812 48.3041 70.757C47.5911 70.604 46.8111 70.452 46.1151 70.247L41.9731 68.942C41.5041 68.79 41.0681 68.639 40.6131 68.474C38.9501 67.874 36.7321 67.133 35.0251 66.793C34.2531 66.636 33.5401 66.66 32.9221 66.192C32.3931 65.794 31.8711 65.325 31.8711 64.546V39.896C31.8711 39.735 31.9661 39.445 32.0231 39.314C32.3981 38.438 33.1231 37.928 34.0731 37.799C34.5641 37.734 34.7521 37.605 35.0711 37.376C35.9451 36.765 36.7321 35.93 37.4171 35.109L40.1841 31.833C41.4061 30.324 42.5591 28.763 43.8471 27.308C43.9091 27.236 43.9591 27.194 44.0251 27.124L44.3481 26.758C44.4731 26.623 44.5831 26.523 44.7121 26.394C45.4741 25.624 46.0221 24.12 46.3541 23.092L46.6331 21.954C46.8191 21.087 47.3161 18.507 47.5321 17.87L48.1561 16.389C48.4411 15.822 48.9531 14.911 49.4551 14.484L49.6541 14.314C49.7871 14.208 49.8971 14.118 50.0571 14.037C51.2021 13.481 53.5941 13.936 54.7961 14.371C55.3121 14.555 55.8021 14.756 56.2471 15.023C57.7171 15.918 58.8271 17.656 59.1991 19.34C59.5361 20.869 59.5441 22.177 59.5441 23.75C59.5441 25.817 58.7551 28.196 57.8631 29.842C57.4331 30.633 56.8901 31.602 56.5791 32.448C56.5171 32.617 56.4561 32.899 56.3881 33.036C57.1711 33.036 66.7341 32.975 67.2651 33.047C68.1321 33.163 68.9291 33.313 69.7481 33.679C70.4141 33.973 71.0761 34.43 71.5881 34.946C71.6731 35.031 71.7151 35.071 71.8021 35.143L72.3541 35.733C72.5871 36.031 72.7941 36.302 73.0051 36.64C73.1071 36.799 73.1891 36.968 73.2801 37.142C73.3691 37.311 73.4411 37.489 73.5221 37.681C74.2301 39.447 74.0781 41.808 73.4011 43.5Z" fill="#272E31"/>
</g>
<mask id="mask2_1768_386" style="mask-type:luminance" maskUnits="userSpaceOnUse" x="0" y="0" width="200" height="393">
<path d="M199.352 0.00100708H0.00195312V392.263H199.352V0.00100708Z" fill="white"/>
</mask>
<g mask="url(#mask2_1768_386)">
<path d="M28.7637 38.474L28.4587 38.229C28.1117 37.966 27.6427 37.791 27.1577 37.791H16.2247C15.4647 37.791 14.8787 38.144 14.4967 38.531C14.0167 39.026 13.8027 39.618 13.8027 40.352V64.182C13.8027 64.73 13.9257 65.276 14.2317 65.671C14.2937 65.754 14.3187 65.764 14.3797 65.843C14.6297 66.135 14.8837 66.382 15.2827 66.541C15.6087 66.67 15.9257 66.744 16.3637 66.744H26.9777C27.9537 66.744 28.7297 66.287 29.2177 65.46C29.3327 65.259 29.4907 64.861 29.4907 64.546V40.031C29.4907 39.43 29.1567 38.855 28.7637 38.474ZM22.8007 61.149C22.0327 61.915 20.9497 62.126 20.0217 61.665C19.7337 61.525 19.2687 61.138 19.0797 60.868C18.8237 60.502 18.6487 59.969 18.6487 59.514C18.6487 59.241 18.7687 58.753 18.8667 58.543C19.2177 57.718 20.0127 57.156 21.0347 57.096C21.6627 57.062 22.3077 57.376 22.7397 57.805C22.7457 57.811 22.7567 57.824 22.7607 57.83C22.7667 57.835 22.7777 57.845 22.7817 57.853C22.8177 57.887 22.8137 57.89 22.8477 57.925C22.9187 58 22.9357 58.019 22.9957 58.097C23.6747 58.977 23.5997 60.358 22.8007 61.149Z" fill="#272E31"/>
</g>
</g>
<defs>
<clipPath id="clip0_1768_386">
<rect width="87" height="87" fill="white"/>
</clipPath>
</defs>
</svg>
