<svg width="118" height="118" viewBox="0 0 118 118" fill="none" xmlns="http://www.w3.org/2000/svg">
<g clip-path="url(#clip0_1558_91)">
<path d="M2.14801 1.02014H115.503H116.63V2.16107V115.502V116.643H115.503H2.14801H1.02051V115.502V2.16107V1.02014H2.14801Z" stroke="#272E31" stroke-width="1.52" stroke-miterlimit="10"/>
<path d="M105.878 41.6372L100.831 18.7247L85.0056 35.852L90.576 37.3956L76.6567 85.7442L65.5963 43.4359H42.1603V79.4355C42.1603 85.7711 39.1402 89.2207 34.402 89.2207C29.6638 89.2207 26.5631 86.1335 26.5631 79.1537V43.4359H14.5498V79.798C14.5498 92.8851 21.382 98.9253 34.1067 98.9253C46.8314 98.9253 53.9589 92.2408 53.9589 79.3684V48.5633L68.7641 97.5696H84.1465L100.227 40.0802L105.864 41.6372H105.878Z" fill="#272E31"/>
</g>
<defs>
<clipPath id="clip0_1558_91">
<rect width="117.65" height="117.663" fill="white"/>
</clipPath>
</defs>
</svg>
