<svg width="88" height="87" viewBox="0 0 88 87" fill="none" xmlns="http://www.w3.org/2000/svg">
<g clip-path="url(#clip0_1768_583)">
<mask id="mask0_1768_583" style="mask-type:luminance" maskUnits="userSpaceOnUse" x="-113" y="-269" width="201" height="395">
<path d="M87.444 -269H-112.999V125.409H87.444V-269Z" fill="white"/>
</mask>
<g mask="url(#mask0_1768_583)">
<path d="M1.97076 0.869019H85.8518H86.6898V1.71204V85.588V86.428H85.8518H1.97076H1.13477V85.588V1.71204V0.869019H1.97076Z" stroke="#272E31" stroke-width="1.5079" stroke-miterlimit="10"/>
</g>
<mask id="mask1_1768_583" style="mask-type:luminance" maskUnits="userSpaceOnUse" x="-113" y="-269" width="201" height="395">
<path d="M87.444 -269H-112.999V125.409H87.444V-269Z" fill="white"/>
</mask>
<g mask="url(#mask1_1768_583)">
<path d="M74.1307 59.979H68.7397L73.0457 55.674L71.4507 54.081L65.5517 59.979H62.5947V57.023L68.4967 51.123L66.9017 49.528L62.5947 53.835V48.443H60.3407V53.835L56.0337 49.528L54.4407 51.123L60.3407 57.023V59.979H57.3847L51.4847 54.081L49.8897 55.674L54.1967 59.979H48.8047V62.233H54.1967L49.8897 66.54L51.4847 68.135L57.3847 62.233H60.3407V65.19L54.4407 71.091L56.0337 72.687L60.3407 68.376V73.769H62.5947V68.376L66.9017 72.687L68.4967 71.091L62.5947 65.19V62.233H65.5517L71.4507 68.135L73.0457 66.54L68.7397 62.233H74.1307V59.979Z" fill="#272E31"/>
</g>
<mask id="mask2_1768_583" style="mask-type:luminance" maskUnits="userSpaceOnUse" x="-113" y="-269" width="201" height="395">
<path d="M87.444 -269H-112.999V125.409H87.444V-269Z" fill="white"/>
</mask>
<g mask="url(#mask2_1768_583)">
<path d="M33.2698 61.107C33.2698 64.697 30.3627 67.606 26.7747 67.606C23.1847 67.606 20.2778 64.697 20.2778 61.107C20.2778 57.519 23.1847 54.607 26.7747 54.607C30.3638 54.607 33.2698 57.519 33.2698 61.107ZM22.0568 54.792L17.8668 50.605L16.2738 52.202L20.4618 56.388C20.9148 55.784 21.4518 55.25 22.0568 54.792ZM33.0878 56.388L37.2767 52.202L35.6818 50.605L31.4948 54.792C32.0998 55.25 32.6358 55.784 33.0878 56.388ZM18.8858 61.107C18.8858 60.722 18.9218 60.352 18.9748 59.98H13.0518V62.232H18.9748C18.9208 61.866 18.8858 61.492 18.8858 61.107ZM27.9028 53.308V47.383H25.6488V53.308C26.0168 53.255 26.3908 53.217 26.7758 53.217C27.1608 53.217 27.5328 53.255 27.9028 53.308ZM31.4958 67.421L35.6828 71.609L37.2778 70.016L33.0888 65.826C32.6358 66.43 32.0998 66.966 31.4958 67.421ZM34.5748 59.98C34.6278 60.352 34.6668 60.722 34.6668 61.107C34.6668 61.492 34.6278 61.866 34.5748 62.232H40.4978V59.98H34.5748ZM20.4618 65.826L16.2738 70.016L17.8668 71.609L22.0568 67.421C21.4518 66.966 20.9148 66.43 20.4618 65.826ZM25.6488 68.908V74.831H27.9028V68.908C27.5328 68.961 27.1608 68.997 26.7758 68.997C26.3908 68.997 26.0168 68.961 25.6488 68.908Z" fill="#272E31"/>
</g>
<mask id="mask3_1768_583" style="mask-type:luminance" maskUnits="userSpaceOnUse" x="-113" y="-269" width="201" height="395">
<path d="M87.444 -269H-112.999V125.409H87.444V-269Z" fill="white"/>
</mask>
<g mask="url(#mask3_1768_583)">
<path d="M29.3864 20.256C30.1334 19.046 31.4684 18.236 32.9934 18.236C35.3284 18.236 37.2324 20.137 37.2324 22.472C37.2324 24.467 35.8414 26.141 33.9804 26.587C34.7884 26.745 35.5134 27.117 36.0984 27.649C37.8554 26.587 39.0354 24.671 39.0354 22.472C39.0354 19.137 36.3284 16.43 32.9934 16.43C30.6734 16.43 28.6614 17.74 27.6484 19.656C28.2574 19.79 28.8394 19.992 29.3864 20.256Z" fill="#272E31"/>
</g>
<mask id="mask4_1768_583" style="mask-type:luminance" maskUnits="userSpaceOnUse" x="-113" y="-269" width="201" height="395">
<path d="M87.444 -269H-112.999V125.409H87.444V-269Z" fill="white"/>
</mask>
<g mask="url(#mask4_1768_583)">
<path d="M26.0211 21.284C29.0641 21.284 31.6531 23.66 31.9081 26.695L32.0311 28.146L33.4751 28.333C34.7661 28.497 35.7401 29.605 35.7401 30.904C35.7401 32.337 34.5751 33.505 33.1411 33.505H18.8981C17.4671 33.505 16.2991 32.337 16.2991 30.904C16.2991 29.605 17.2741 28.497 18.5641 28.333L20.0111 28.146L20.1321 26.695C20.3891 23.66 22.9751 21.284 26.0211 21.284ZM26.0211 19.481C21.9801 19.481 18.6691 22.586 18.3351 26.54C16.1721 26.818 14.4961 28.665 14.4961 30.904C14.4961 33.337 16.4671 35.309 18.8981 35.309H33.1411C35.5751 35.309 37.5461 33.337 37.5461 30.904C37.5461 28.662 35.8701 26.818 33.7071 26.54C33.3711 22.586 30.0621 19.481 26.0211 19.481Z" fill="#272E31"/>
</g>
<mask id="mask5_1768_583" style="mask-type:luminance" maskUnits="userSpaceOnUse" x="-113" y="-269" width="201" height="395">
<path d="M87.444 -269H-112.999V125.409H87.444V-269Z" fill="white"/>
</mask>
<g mask="url(#mask5_1768_583)">
<path d="M67.1983 32.366H65.7393V34.718H67.1983V32.366Z" fill="#272E31"/>
</g>
<mask id="mask6_1768_583" style="mask-type:luminance" maskUnits="userSpaceOnUse" x="-113" y="-269" width="201" height="395">
<path d="M87.444 -269H-112.999V125.409H87.444V-269Z" fill="white"/>
</mask>
<g mask="url(#mask6_1768_583)">
<path d="M64.3204 32.366H62.8594V34.718H64.3204V32.366Z" fill="#272E31"/>
</g>
<mask id="mask7_1768_583" style="mask-type:luminance" maskUnits="userSpaceOnUse" x="-113" y="-269" width="201" height="395">
<path d="M87.444 -269H-112.999V125.409H87.444V-269Z" fill="white"/>
</mask>
<g mask="url(#mask7_1768_583)">
<path d="M61.4404 32.366H59.9814V34.718H61.4404V32.366Z" fill="#272E31"/>
</g>
<mask id="mask8_1768_583" style="mask-type:luminance" maskUnits="userSpaceOnUse" x="-113" y="-269" width="201" height="395">
<path d="M87.444 -269H-112.999V125.409H87.444V-269Z" fill="white"/>
</mask>
<g mask="url(#mask8_1768_583)">
<path d="M58.5586 32.366H57.0996V34.718H58.5586V32.366Z" fill="#272E31"/>
</g>
<mask id="mask9_1768_583" style="mask-type:luminance" maskUnits="userSpaceOnUse" x="-113" y="-269" width="201" height="395">
<path d="M87.444 -269H-112.999V125.409H87.444V-269Z" fill="white"/>
</mask>
<g mask="url(#mask9_1768_583)">
<path d="M64.3204 36.11H62.8594V38.462H64.3204V36.11Z" fill="#272E31"/>
</g>
<mask id="mask10_1768_583" style="mask-type:luminance" maskUnits="userSpaceOnUse" x="-113" y="-269" width="201" height="395">
<path d="M87.444 -269H-112.999V125.409H87.444V-269Z" fill="white"/>
</mask>
<g mask="url(#mask10_1768_583)">
<path d="M61.4404 36.11H59.9814V38.462H61.4404V36.11Z" fill="#272E31"/>
</g>
<mask id="mask11_1768_583" style="mask-type:luminance" maskUnits="userSpaceOnUse" x="-113" y="-269" width="201" height="395">
<path d="M87.444 -269H-112.999V125.409H87.444V-269Z" fill="white"/>
</mask>
<g mask="url(#mask11_1768_583)">
<path d="M58.5586 36.11H57.0996V38.462H58.5586V36.11Z" fill="#272E31"/>
</g>
<mask id="mask12_1768_583" style="mask-type:luminance" maskUnits="userSpaceOnUse" x="-113" y="-269" width="201" height="395">
<path d="M87.444 -269H-112.999V125.409H87.444V-269Z" fill="white"/>
</mask>
<g mask="url(#mask12_1768_583)">
<path d="M55.6807 32.366H54.2217V34.718H55.6807V32.366Z" fill="#272E31"/>
</g>
<mask id="mask13_1768_583" style="mask-type:luminance" maskUnits="userSpaceOnUse" x="-113" y="-269" width="201" height="395">
<path d="M87.444 -269H-112.999V125.409H87.444V-269Z" fill="white"/>
</mask>
<g mask="url(#mask13_1768_583)">
<path d="M60.7105 16.379C63.7535 16.379 66.3405 18.754 66.5975 21.787L66.7205 23.24L68.1645 23.425C69.4575 23.589 70.4295 24.697 70.4295 25.998C70.4295 27.43 69.2645 28.597 67.8335 28.597H53.5905C52.1565 28.597 50.9915 27.43 50.9915 25.998C50.9915 24.697 51.9655 23.589 53.2545 23.425L54.6985 23.238L54.8215 21.787C55.0785 18.754 57.6645 16.379 60.7105 16.379ZM60.7105 14.573C56.6695 14.573 53.3585 17.68 53.0245 21.632C50.8615 21.91 49.1855 23.757 49.1855 25.998C49.1855 28.431 51.1575 30.401 53.5905 30.401H67.8335C70.2645 30.401 72.2355 28.431 72.2355 25.998C72.2355 23.757 70.5595 21.91 68.3945 21.632C68.0605 17.68 64.7495 14.573 60.7105 14.573Z" fill="#272E31"/>
</g>
<mask id="mask14_1768_583" style="mask-type:luminance" maskUnits="userSpaceOnUse" x="-113" y="-269" width="201" height="395">
<path d="M87.444 -269H-112.999V125.409H87.444V-269Z" fill="white"/>
</mask>
<g mask="url(#mask14_1768_583)">
<path d="M44.6161 9.323H43.4121V79.007H44.6161V9.323Z" fill="#272E31"/>
</g>
<mask id="mask15_1768_583" style="mask-type:luminance" maskUnits="userSpaceOnUse" x="-113" y="-269" width="201" height="395">
<path d="M87.444 -269H-112.999V125.409H87.444V-269Z" fill="white"/>
</mask>
<g mask="url(#mask15_1768_583)">
<path d="M78.8539 43.564H9.17188V44.768H78.8539V43.564Z" fill="#272E31"/>
</g>
</g>
<defs>
<clipPath id="clip0_1768_583">
<rect width="88" height="87" fill="white"/>
</clipPath>
</defs>
</svg>
