<svg width="87" height="87" viewBox="0 0 87 87" fill="none" xmlns="http://www.w3.org/2000/svg">
<g clip-path="url(#clip0_1768_380)">
<mask id="mask0_1768_380" style="mask-type:luminance" maskUnits="userSpaceOnUse" x="0" y="0" width="200" height="374">
<path d="M199.941 0.00201416H0.00195312V373.054H199.941V0.00201416Z" fill="white"/>
</mask>
<g mask="url(#mask0_1768_380)">
<path d="M85.2569 0.752014H1.58893H0.75293V1.59001V85.256V86.091H1.58893H85.2569H86.0899V85.256V1.59001V0.752014H85.2569Z" stroke="#272E31" stroke-width="1.5041" stroke-miterlimit="10"/>
</g>
<mask id="mask1_1768_380" style="mask-type:luminance" maskUnits="userSpaceOnUse" x="0" y="0" width="200" height="374">
<path d="M199.941 0.00201416H0.00195312V373.054H199.941V0.00201416Z" fill="white"/>
</mask>
<g mask="url(#mask1_1768_380)">
<path d="M16.2494 22.545C14.9574 23.612 13.3364 24.949 11.2874 26.637C9.98438 27.717 9.56238 28.882 9.83638 29.928C10.2114 31.394 11.2274 31.856 12.7194 32.452C18.1884 34.147 23.8824 35.019 29.0734 35.373L16.2494 22.545Z" fill="#272E31"/>
</g>
<mask id="mask2_1768_380" style="mask-type:luminance" maskUnits="userSpaceOnUse" x="0" y="0" width="200" height="374">
<path d="M199.941 0.00201416H0.00195312V373.054H199.941V0.00201416Z" fill="white"/>
</mask>
<g mask="url(#mask2_1768_380)">
<path d="M31.3121 37.61C31.2671 39.174 31.2191 40.852 31.1571 42.619H27.0481C25.6821 42.619 25.4311 43.675 25.8281 44.522C26.7761 46.896 28.4291 48.68 30.9111 49.539C30.4611 61.33 29.8541 73.836 29.5891 75.586C29.2731 78.478 31.8441 79.778 34.6281 79.778C37.4111 79.778 39.9821 78.478 39.6661 75.586C39.3971 73.836 38.7921 61.33 38.3441 49.539C39.5471 49.123 40.5491 48.485 41.3781 47.672L31.3121 37.61Z" fill="#272E31"/>
</g>
<mask id="mask3_1768_380" style="mask-type:luminance" maskUnits="userSpaceOnUse" x="0" y="0" width="200" height="374">
<path d="M199.941 0.00201416H0.00195312V373.054H199.941V0.00201416Z" fill="white"/>
</mask>
<g mask="url(#mask3_1768_380)">
<path d="M65.0378 71.334L57.8758 64.174C57.5468 69.448 57.1358 74.875 56.9298 76.247C56.7218 78.725 58.7438 79.777 61.2088 79.777C63.6778 79.777 65.6978 78.725 65.4898 76.247C65.3798 75.526 65.2158 73.685 65.0378 71.334Z" fill="#272E31"/>
</g>
<mask id="mask4_1768_380" style="mask-type:luminance" maskUnits="userSpaceOnUse" x="0" y="0" width="200" height="374">
<path d="M199.941 0.00201416H0.00195312V373.054H199.941V0.00201416Z" fill="white"/>
</mask>
<g mask="url(#mask4_1768_380)">
<path d="M77.9485 50.08L63.5755 38.395C62.8505 37.803 62.2175 37.383 61.2085 37.383C60.2025 37.383 59.5685 37.803 58.8425 38.395C46.5575 48.381 55.2725 41.295 49.0865 46.329L38.2375 35.478C43.8565 35.226 50.1195 34.375 56.5365 32.453C58.0305 31.855 59.0505 31.356 59.3625 29.759C59.5725 28.702 59.2735 27.716 57.9665 26.636L38.0315 10.188C37.0325 9.365 35.9245 8.595 34.6285 8.595C33.3305 8.595 32.2245 9.365 31.2275 10.188C19.6365 19.752 21.5175 18.197 21.2125 18.451L14.5785 11.82L12.3135 14.083L73.7585 75.531L76.0245 73.263L64.3905 61.631C64.2885 59.79 64.1975 58.052 64.1375 56.625C69.0895 56.442 72.5135 55.744 77.5965 53.981C78.2625 53.72 79.2825 53.485 79.4635 52.403C79.6325 51.41 78.8965 50.852 77.9485 50.08Z" fill="#272E31"/>
</g>
</g>
<defs>
<clipPath id="clip0_1768_380">
<rect width="87" height="87" fill="white"/>
</clipPath>
</defs>
</svg>
