<svg width="94" height="94" viewBox="0 0 94 94" fill="none" xmlns="http://www.w3.org/2000/svg">
<mask id="mask0_1768_379" style="mask-type:luminance" maskUnits="userSpaceOnUse" x="0" y="0" width="94" height="94">
<path d="M93.998 0H0V94H93.998V0Z" fill="white"/>
</mask>
<g mask="url(#mask0_1768_379)">
<path d="M92.0506 1.11801H1.71257H0.80957V2.02301V92.359V93.261H1.71257H92.0506H92.9506V92.359V2.02301V1.11801H92.0506Z" stroke="#272E31" stroke-width="1.624" stroke-miterlimit="10"/>
</g>
<mask id="mask1_1768_379" style="mask-type:luminance" maskUnits="userSpaceOnUse" x="0" y="0" width="94" height="94">
<path d="M93.998 0H0V94H93.998V0Z" fill="white"/>
</mask>
<g mask="url(#mask1_1768_379)">
<path d="M65.1558 28.077C60.0688 28.077 55.0779 30.196 51.4489 33.684C49.5779 35.485 46.3799 39.981 46.3799 39.981L40.5409 48.014L40.5459 48.021L36.6699 53.358C36.2829 53.903 35.7819 54.552 35.5799 54.783C34.0249 56.606 31.2459 57.907 28.3669 57.907C22.9199 57.907 18.4809 53.475 18.4809 48.021C18.4809 42.57 22.9199 38.137 28.3669 38.137C30.8959 38.137 33.3029 39.09 35.1399 40.822C35.1399 40.822 36.7669 42.182 38.8459 45.678L45.0609 37.113L44.6579 36.557C44.1899 35.927 43.0019 34.378 42.0029 33.465C38.2919 29.99 33.4519 28.077 28.3669 28.077C17.3719 28.077 8.42285 37.024 8.42285 48.021C8.42285 59.02 17.3719 67.967 28.3669 67.967C33.8209 67.967 38.9079 65.812 42.7009 61.893C43.2239 61.368 43.9339 60.482 44.8179 59.263L56.9419 42.558C57.3659 41.985 58.0569 41.129 58.2909 40.909C60.1239 38.879 62.4278 38.137 65.1558 38.137C70.6049 38.137 75.0418 42.57 75.0418 48.021C75.0418 53.475 70.6049 57.907 65.1558 57.907C62.4389 57.907 59.9079 56.828 58.0249 54.87L57.9409 54.783C56.5409 53.264 54.6739 50.36 54.6739 50.36L48.4579 58.922L48.6999 59.256C49.5889 60.482 50.3039 61.368 50.8219 61.893C54.6149 65.812 59.7019 67.967 65.1558 67.967C76.1528 67.967 85.0998 59.02 85.0998 48.021C85.0998 37.024 76.1518 28.077 65.1558 28.077Z" fill="#272E31"/>
</g>
</svg>
