<svg width="91" height="91" viewBox="0 0 91 91" fill="none" xmlns="http://www.w3.org/2000/svg">
<g clip-path="url(#clip0_1768_391)">
<mask id="mask0_1768_391" style="mask-type:luminance" maskUnits="userSpaceOnUse" x="0" y="-280" width="216" height="390">
<path d="M215.443 -280H0.00195312V109.438H215.443V-280Z" fill="white"/>
</mask>
<g mask="url(#mask0_1768_391)">
<path d="M45.3335 76.353C41.9745 76.353 39.2435 73.62 39.2435 70.262C39.2435 69.946 39.3255 69.111 39.8705 67.031L42.0475 58.795C43.0945 59.121 44.1845 59.344 45.3385 59.344C46.4875 59.344 47.5775 59.121 48.6205 58.8L50.7975 67.029C51.3445 69.106 51.4245 69.946 51.4245 70.262C51.4245 73.62 48.6915 76.353 45.3335 76.353ZM35.8905 65.386C34.7745 67.302 34.2385 67.924 34.0545 68.105C31.7565 70.406 27.7475 70.411 25.4445 68.105C24.2945 66.956 23.6595 65.423 23.6595 63.8C23.6595 62.172 24.2945 60.644 25.4445 59.495C25.6705 59.269 26.3195 58.738 28.1615 57.663L35.5275 53.369C36.5725 55.356 38.1855 56.97 40.1675 58.02L35.8905 65.386ZM18.9865 52.523C17.8375 51.376 17.2055 49.848 17.2055 48.218C17.2055 44.861 19.9365 42.13 23.2965 42.13C23.6105 42.13 24.4525 42.21 26.5165 42.755L34.7595 44.932C34.4355 45.979 34.2125 47.069 34.2125 48.22C34.2125 49.367 34.4335 50.457 34.7565 51.5L26.5145 53.679C24.4475 54.226 23.6085 54.308 23.2935 54.308C21.6685 54.308 20.1385 53.675 18.9865 52.523ZM62.5705 69.618C60.5065 70.165 58.1725 69.664 56.6175 68.114C56.4355 67.93 55.8915 67.299 54.7775 65.384L50.5025 58.02C50.6075 57.965 50.7025 57.907 50.8025 57.849L35.7095 42.755C35.6535 42.859 35.5875 42.954 35.5365 43.06L28.1645 38.773C26.2545 37.661 25.6255 37.121 25.4445 36.939C24.2945 35.787 23.6595 34.259 23.6595 32.631C23.6595 32.053 23.7415 31.486 23.8965 30.944L20.5835 27.631C19.7525 29.148 19.3075 30.855 19.3075 32.631C19.3095 34.583 19.8395 36.452 20.8335 38.071C16.2605 39.18 12.8545 43.31 12.8545 48.218C12.8545 51.006 13.9395 53.626 15.9125 55.599C17.2905 56.977 18.9825 57.92 20.8315 58.368C19.8395 59.984 19.3095 61.851 19.3095 63.8C19.3095 66.588 20.3975 69.213 22.3705 71.182C24.3375 73.157 26.9615 74.242 29.7495 74.242C31.6965 74.242 33.5635 73.713 35.1865 72.721C36.2935 77.296 40.4245 80.704 45.3335 80.704C50.2485 80.704 54.3745 77.296 55.4835 72.721C57.1045 73.715 58.9735 74.247 60.9275 74.247C62.7015 74.247 64.4085 73.799 65.9235 72.973L62.5705 69.618Z" fill="#272E31"/>
</g>
<mask id="mask1_1768_391" style="mask-type:luminance" maskUnits="userSpaceOnUse" x="0" y="-280" width="216" height="390">
<path d="M215.443 -280H0.00195312V109.438H215.443V-280Z" fill="white"/>
</mask>
<g mask="url(#mask1_1768_391)">
<path d="M45.3325 20.088C48.6915 20.088 51.4225 22.821 51.4225 26.178C51.4225 26.433 51.3625 27.259 50.7955 29.396L48.6145 37.637C47.5715 37.313 46.4835 37.09 45.3365 37.09C44.1845 37.09 43.0935 37.318 42.0475 37.641L39.8705 29.396C39.3255 27.328 39.2415 26.493 39.2415 26.178C39.2415 22.821 41.9745 20.088 45.3325 20.088ZM54.7795 31.046C55.8845 29.139 56.4315 28.504 56.6135 28.322C58.9185 26.023 62.9295 26.021 65.2305 28.322C66.3775 29.471 67.0135 30.997 67.0085 32.627C67.0085 34.255 66.3755 35.785 65.2195 36.941C65.0405 37.121 64.4175 37.661 62.4955 38.777L55.1365 43.049C54.0885 41.072 52.4835 39.466 50.5015 38.416L54.7795 31.046ZM73.4715 48.22C73.4715 49.844 72.8375 51.372 71.6865 52.521C70.5325 53.675 69.0045 54.308 67.3765 54.308C67.1195 54.308 66.2935 54.244 64.1495 53.679L55.9185 51.5C56.2415 50.455 56.4675 49.368 56.4675 48.22C56.4675 47.073 56.2415 45.988 55.9225 44.945L64.1495 42.759C66.2845 42.19 67.1195 42.128 67.3805 42.128C70.7385 42.128 73.4715 44.861 73.4715 48.22ZM25.7215 28.074C28.0575 26.034 31.8475 26.114 34.0575 28.329C34.2785 28.548 34.8125 29.199 35.8865 31.042L40.1765 38.414C39.2975 38.879 38.4955 39.462 37.7805 40.128L53.4265 55.779C54.0975 55.066 54.6755 54.264 55.1385 53.387L62.4995 57.661C64.4175 58.775 65.0485 59.318 65.2305 59.497C67.5095 61.783 67.5915 65.444 65.4835 67.833L68.5615 70.912C71.7905 67.437 72.2195 62.283 69.8325 58.368C71.6845 57.925 73.3805 56.979 74.7605 55.6C76.7355 53.626 77.8205 51.006 77.8185 48.218C77.8185 43.308 74.4085 39.178 69.8325 38.069C70.8265 36.445 71.3585 34.578 71.3585 32.629C71.3625 29.839 70.2775 27.215 68.3065 25.248C66.3335 23.275 63.7155 22.19 60.9235 22.19C58.9745 22.19 57.1055 22.721 55.4815 23.713C54.3695 19.142 50.2415 15.738 45.3325 15.738C40.4265 15.738 36.2965 19.142 35.1845 23.713C33.5675 22.721 31.6985 22.192 29.7475 22.192C27.0875 22.192 24.5835 23.191 22.6455 24.996L25.7215 28.074Z" fill="#272E31"/>
</g>
<mask id="mask2_1768_391" style="mask-type:luminance" maskUnits="userSpaceOnUse" x="-219" y="-304" width="429" height="429">
<path d="M-65.7613 -303.587L-218.1 -151.249L57.272 124.123L209.61 -28.2157L-65.7613 -303.587Z" fill="white"/>
</mask>
<g mask="url(#mask2_1768_391)">
<path d="M15.682 14.612L13.333 16.9609L77.0533 80.6813L79.4023 78.3323L15.682 14.612Z" fill="#272E31"/>
</g>
<mask id="mask3_1768_391" style="mask-type:luminance" maskUnits="userSpaceOnUse" x="0" y="-280" width="216" height="390">
<path d="M215.443 -280H0.00195312V109.438H215.443V-280Z" fill="white"/>
</mask>
<g mask="url(#mask3_1768_391)">
<path d="M1.65516 1.01404H89.0002H89.8752V1.89102V89.232V90.106H89.0002H1.65516H0.785156V89.232V1.89102V1.01404H1.65516Z" stroke="#272E31" stroke-width="1.5702" stroke-miterlimit="10"/>
</g>
</g>
<defs>
<clipPath id="clip0_1768_391">
<rect width="91" height="91" fill="white"/>
</clipPath>
</defs>
</svg>
