<svg width="118" height="118" viewBox="0 0 118 118" fill="none" xmlns="http://www.w3.org/2000/svg">
<g clip-path="url(#clip0_1558_71)">
<path d="M115.503 1.02014H2.14801H1.02051V2.14765V115.502V116.63H2.14801H115.503H116.63V115.502V2.14765V1.02014H115.503Z" stroke="#272E31" stroke-width="1.52" stroke-miterlimit="10"/>
<path d="M58.8583 100.362H58.8181C51.9859 98.5361 29.3821 90.6972 29.3821 66.9927V32.4964C40.4424 31.5836 50.6571 27.6374 58.8315 21.1005C67.0059 27.6374 77.234 31.5836 88.2809 32.4964V67.0062C88.2809 90.7106 65.6771 98.5495 58.8449 100.375M97.3547 23.6643L92.8581 23.6374C80.8984 23.5434 69.9187 19.3421 61.9456 11.812L58.8315 8.87244L55.7174 11.812C47.7443 19.3421 36.7646 23.5434 24.8049 23.6374L20.2949 23.6643V67.0062C20.2949 72.6168 22.0936 100.992 57.7577 109.462L58.8047 109.704H58.8449L59.9053 109.462C95.5426 100.992 97.3547 72.6034 97.3547 67.0062V23.6508V23.6643Z" fill="#272E31"/>
<path d="M58.8321 34.8051L44.0135 56.6841C42.0135 59.5834 40.8457 63.1001 40.8457 66.8853C40.8457 76.8315 48.9127 84.8852 58.8321 84.8852C68.7515 84.8852 76.832 76.8181 76.832 66.8853C76.832 63.1001 75.6642 59.5968 73.6642 56.6841L58.8321 34.8051ZM58.8321 49.7579L66.7113 61.382V61.4088L66.7381 61.4357C67.8388 63.0464 68.4294 64.9256 68.4294 66.8853C68.4294 72.1873 64.1207 76.496 58.8187 76.496C53.5167 76.496 49.2215 72.1873 49.2215 66.8853C49.2215 64.9256 49.7986 63.0464 50.9127 61.4357V61.4088L50.9396 61.382L58.8187 49.7579H58.8321Z" fill="#272E31"/>
</g>
<defs>
<clipPath id="clip0_1558_71">
<rect width="117.65" height="117.65" fill="white"/>
</clipPath>
</defs>
</svg>
