<svg width="87" height="88" viewBox="0 0 87 88" fill="none" xmlns="http://www.w3.org/2000/svg">
<g clip-path="url(#clip0_1768_388)">
<mask id="mask0_1768_388" style="mask-type:luminance" maskUnits="userSpaceOnUse" x="0" y="-267" width="200" height="393">
<path d="M199.352 -266.999H0.00195312V125.263H199.352V-266.999Z" fill="white"/>
</mask>
<g mask="url(#mask0_1768_388)">
<path d="M1.581 1.401H85.005H85.841V2.23801V85.658V86.493H85.005H1.581H0.75V85.658V2.23801V1.401H1.581Z" stroke="#272E31" stroke-width="1.4997" stroke-miterlimit="10"/>
</g>
<mask id="mask1_1768_388" style="mask-type:luminance" maskUnits="userSpaceOnUse" x="0" y="-267" width="200" height="393">
<path d="M199.352 -266.999H0.00195312V125.263H199.352V-266.999Z" fill="white"/>
</mask>
<g mask="url(#mask1_1768_388)">
<path d="M43.8689 71.987C43.8649 46.042 43.8519 28.898 43.8519 17.178C49.5039 21.692 56.5709 24.42 64.2199 25.055V48.917C64.2199 65.303 48.5859 70.722 43.8689 71.987ZM70.4869 18.942L67.3799 18.921C59.1089 18.859 51.5199 15.953 46.0009 10.743L43.8519 8.70398L41.6969 10.743C36.1799 15.953 28.5909 18.859 20.3249 18.921L17.2109 18.942V48.917C17.2109 52.794 18.4589 72.41 43.1419 78.276L43.8689 78.447L44.5949 78.276C69.2429 72.421 70.4929 52.794 70.4929 48.917L70.4869 18.942Z" fill="#272E31"/>
</g>
</g>
<defs>
<clipPath id="clip0_1768_388">
<rect width="87" height="88" fill="white"/>
</clipPath>
</defs>
</svg>
