<svg width="87" height="88" viewBox="0 0 87 88" fill="none" xmlns="http://www.w3.org/2000/svg">
<g clip-path="url(#clip0_1768_389)">
<mask id="mask0_1768_389" style="mask-type:luminance" maskUnits="userSpaceOnUse" x="-112" y="-267" width="200" height="393">
<path d="M87.352 -266.999H-111.998V125.263H87.352V-266.999Z" fill="white"/>
</mask>
<g mask="url(#mask0_1768_389)">
<path d="M2.29292 1.401H85.7169H86.5499V2.23801V85.658V86.493H85.7169H2.29292H1.46191V85.658V2.23801V1.401H2.29292Z" stroke="#272E31" stroke-width="1.4997" stroke-miterlimit="10"/>
</g>
<mask id="mask1_1768_389" style="mask-type:luminance" maskUnits="userSpaceOnUse" x="-112" y="-267" width="200" height="393">
<path d="M87.352 -266.999H-111.998V125.263H87.352V-266.999Z" fill="white"/>
</mask>
<g mask="url(#mask1_1768_389)">
<path d="M60.976 47.648L55.434 56.16C54.66 57.291 54.25 58.607 54.25 59.975C54.25 63.686 57.268 66.71 60.976 66.71C64.686 66.71 67.702 63.686 67.702 59.975C67.702 58.607 67.292 57.291 66.516 56.155L60.976 47.648Z" fill="#272E31"/>
</g>
<mask id="mask2_1768_389" style="mask-type:luminance" maskUnits="userSpaceOnUse" x="-112" y="-267" width="200" height="393">
<path d="M87.352 -266.999H-111.998V125.263H87.352V-266.999Z" fill="white"/>
</mask>
<g mask="url(#mask2_1768_389)">
<path d="M44.0054 24.23L38.4614 32.74C37.6894 33.871 37.2764 35.187 37.2764 36.557C37.2764 40.268 40.2994 43.29 44.0094 43.29C47.7154 43.29 50.7314 40.268 50.7314 36.557C50.7314 35.187 50.3234 33.867 49.5454 32.74L44.0054 24.23Z" fill="#272E31"/>
</g>
<mask id="mask3_1768_389" style="mask-type:luminance" maskUnits="userSpaceOnUse" x="-112" y="-267" width="200" height="393">
<path d="M87.352 -266.999H-111.998V125.263H87.352V-266.999Z" fill="white"/>
</mask>
<g mask="url(#mask3_1768_389)">
<path d="M10.3906 77.56H77.6206V10.33H10.3906V77.56ZM27.0346 70.366C21.3086 70.366 16.6516 65.711 16.6516 59.976C16.6516 57.867 17.2836 55.828 18.4766 54.09L27.0346 40.95L35.5766 54.075C36.7816 55.828 37.4146 57.867 37.4146 59.976C37.4146 65.711 32.7626 70.366 27.0346 70.366ZM33.6236 36.559C33.6236 34.448 34.2566 32.411 35.4516 30.668L44.0096 17.526L52.5446 30.651C53.7566 32.411 54.3866 34.448 54.3866 36.559C54.3866 42.287 49.7306 46.942 44.0096 46.942C38.2816 46.942 33.6236 42.287 33.6236 36.559ZM60.9756 70.366C55.2496 70.366 50.5916 65.711 50.5916 59.976C50.5916 57.867 51.2266 55.828 52.4236 54.09L60.9756 40.95L69.5186 54.075C70.7246 55.828 71.3566 57.867 71.3566 59.976C71.3566 65.711 66.7016 70.366 60.9756 70.366Z" fill="#272E31"/>
</g>
<mask id="mask4_1768_389" style="mask-type:luminance" maskUnits="userSpaceOnUse" x="-112" y="-267" width="200" height="393">
<path d="M87.352 -266.999H-111.998V125.263H87.352V-266.999Z" fill="white"/>
</mask>
<g mask="url(#mask4_1768_389)">
<path d="M27.0336 47.648L21.4936 56.16C20.7196 57.291 20.3096 58.607 20.3096 59.975C20.3096 63.686 23.3276 66.71 27.0356 66.71C30.7436 66.71 33.7646 63.686 33.7646 59.975C33.7646 58.607 33.3536 57.291 32.5736 56.155L27.0336 47.648Z" fill="#272E31"/>
</g>
</g>
<defs>
<clipPath id="clip0_1768_389">
<rect width="87" height="88" fill="white"/>
</clipPath>
</defs>
</svg>
