<svg width="94" height="94" viewBox="0 0 94 94" fill="none" xmlns="http://www.w3.org/2000/svg">
<mask id="mask0_1768_378" style="mask-type:luminance" maskUnits="userSpaceOnUse" x="0" y="0" width="94" height="94">
<path d="M93.88 0H0V94H93.88V0Z" fill="white"/>
</mask>
<g mask="url(#mask0_1768_378)">
<path d="M1.76721 0.809998H92.1072H93.0092V1.715V92.053V92.958H92.1072H1.76721H0.866211V92.053V1.715V0.809998H1.76721Z" stroke="#272E31" stroke-width="1.624" stroke-miterlimit="10"/>
</g>
<mask id="mask1_1768_378" style="mask-type:luminance" maskUnits="userSpaceOnUse" x="0" y="0" width="94" height="94">
<path d="M93.88 0H0V94H93.88V0Z" fill="white"/>
</mask>
<g mask="url(#mask1_1768_378)">
<path d="M63.8147 61.168L66.9067 54.494L68.5767 55.568L63.8147 61.168ZM63.3617 52.164L65.0197 53.245L60.2577 58.853L63.3617 52.164ZM59.7877 49.823L61.4467 50.902L56.6867 56.53L59.7877 49.823ZM53.1407 54.187L56.2287 47.5L57.8867 48.588L53.1407 54.187ZM49.5747 51.864L52.6847 45.146L54.3227 46.266L49.5747 51.864ZM46.0077 49.53L49.1047 42.846L50.7697 43.923L46.0077 49.53ZM42.4437 47.207L45.5517 40.519L47.2037 41.577L42.4437 47.207ZM38.8817 44.864L41.9877 38.18L43.6437 39.284L38.8817 44.864ZM35.3267 42.53L38.4257 35.862L40.0727 36.941L35.3267 42.53ZM31.7677 40.205L34.8577 33.516L36.5117 34.609L31.7677 40.205ZM59.1627 40.34L76.1177 14.376C74.5877 11.176 72.0637 9.52301 68.4987 9.38501L51.5377 35.358L34.8367 24.423C31.8457 25.399 30.5167 27.414 30.8397 30.523L32.4937 31.604L13.8027 56.981L18.2647 57.547L20.5797 61.407L25.0447 61.975L27.3577 65.843L31.8197 66.411L34.1447 70.271L38.6007 70.835L40.9227 74.708L45.4007 75.267L47.7027 79.136L51.9317 80.1L54.4967 83.563L70.5127 56.473L71.9117 57.389C75.2727 56.69 76.6027 54.661 75.9087 51.266L59.1627 40.34Z" fill="#272E31"/>
</g>
</svg>
