<svg width="87" height="87" viewBox="0 0 87 87" fill="none" xmlns="http://www.w3.org/2000/svg">
<g clip-path="url(#clip0_1768_581)">
<mask id="mask0_1768_581" style="mask-type:luminance" maskUnits="userSpaceOnUse" x="0" y="-135" width="201" height="395">
<path d="M200.444 -135H0.000976562V259.409H200.444V-135Z" fill="white"/>
</mask>
<g mask="url(#mask0_1768_581)">
<path d="M1.58991 0.669983H85.4699H86.3099V1.50998V85.388V86.229H85.4699H1.58991H0.753906V85.388V1.50998V0.669983H1.58991Z" stroke="#272E31" stroke-width="1.5079" stroke-miterlimit="10"/>
</g>
<mask id="mask1_1768_581" style="mask-type:luminance" maskUnits="userSpaceOnUse" x="0" y="-135" width="201" height="395">
<path d="M200.444 -135H0.000976562V259.409H200.444V-135Z" fill="white"/>
</mask>
<g mask="url(#mask1_1768_581)">
<path d="M44.9967 65.115C38.2187 65.115 32.7037 59.662 32.7037 52.954C32.7037 50.54 33.9567 46.856 35.7497 43.998L44.9967 29.223L54.2457 43.998C56.0407 46.856 57.2917 50.54 57.2917 52.954C57.2917 59.662 51.7767 65.115 44.9967 65.115ZM61.8247 39.251L47.9477 17.086C47.3687 16.039 46.3547 15.229 44.9977 15.229C43.6447 15.229 42.6307 16.039 42.0517 17.086L28.1747 39.251C26.0437 42.65 23.7637 48.033 23.7637 52.954C23.7637 64.59 33.2897 74.056 44.9977 74.056C56.7097 74.056 66.2337 64.59 66.2337 52.954C66.2327 48.033 63.9527 42.65 61.8247 39.251Z" fill="#272E31"/>
</g>
</g>
<defs>
<clipPath id="clip0_1768_581">
<rect width="87" height="87" fill="white"/>
</clipPath>
</defs>
</svg>
