<svg width="87" height="87" viewBox="0 0 87 87" fill="none" xmlns="http://www.w3.org/2000/svg">
<g clip-path="url(#clip0_1768_584)">
<mask id="mask0_1768_584" style="mask-type:luminance" maskUnits="userSpaceOnUse" x="0" y="-269" width="201" height="395">
<path d="M200.444 -269H0.000976562V125.409H200.444V-269Z" fill="white"/>
</mask>
<g mask="url(#mask0_1768_584)">
<path d="M1.58991 0.869019H85.4699H86.3099V1.71204V85.588V86.428H85.4699H1.58991H0.753906V85.588V1.71204V0.869019H1.58991Z" stroke="#272E31" stroke-width="1.5079" stroke-miterlimit="10"/>
</g>
<mask id="mask1_1768_584" style="mask-type:luminance" maskUnits="userSpaceOnUse" x="0" y="-269" width="201" height="395">
<path d="M200.444 -269H0.000976562V125.409H200.444V-269Z" fill="white"/>
</mask>
<g mask="url(#mask1_1768_584)">
<path d="M67.6458 42.932C67.6778 39.257 65.9598 36.26 62.9458 33.993C66.9018 30.648 67.6458 27.03 67.6458 24.824C67.6458 14.529 55.8848 10.86 42.7608 10.15V17.574C54.1488 18.287 60.1828 20.99 59.9508 24.756C59.3558 34.565 29.2378 34.878 25.9628 34.782V34.144C34.4148 33.334 43.6808 31.802 49.1068 29.252L49.1168 29.255V28.198C44.2708 26.902 38.7918 26.235 32.7308 26.235C19.9318 26.235 18.5508 31.841 18.5508 34.25C18.5508 40.89 25.5648 42.196 33.1838 41.907C43.2918 41.524 50.4698 40.078 55.5568 38.145C59.5088 39.68 60.0528 41.856 59.9508 42.868C59.3218 49.202 43.6278 52.634 25.9628 52.628V51.99C34.4188 51.18 43.6938 49.644 49.1168 47.094V46.305C44.2708 45.01 38.7918 44.344 32.7308 44.344C19.9318 44.344 18.5508 49.948 18.5508 52.358V52.36C18.5508 54.74 20.1698 60.404 31.1888 60.057C42.4538 59.7 50.2568 58.179 55.6618 56.139C59.5808 57.628 59.9978 59.725 59.9508 60.974C59.8018 65.185 50.5718 70.676 25.9628 70.702V70.061C34.4208 69.249 43.6958 67.713 49.1168 65.163V64.417C44.2708 63.117 38.7918 62.456 32.7308 62.456C19.9318 62.456 18.5508 68.056 18.5508 70.465C18.5508 77.173 25.9968 78.275 31.1888 78.164C63.6628 77.463 67.6058 65.763 67.6458 61.042C67.6778 57.318 65.9398 54.383 62.8858 52.152C66.9778 48.781 67.6288 45.137 67.6458 42.932Z" fill="#272E31"/>
</g>
</g>
<defs>
<clipPath id="clip0_1768_584">
<rect width="87" height="87" fill="white"/>
</clipPath>
</defs>
</svg>
