<svg width="94" height="94" viewBox="0 0 94 94" fill="none" xmlns="http://www.w3.org/2000/svg">
<mask id="mask0_1768_377" style="mask-type:luminance" maskUnits="userSpaceOnUse" x="0" y="0" width="94" height="94">
<path d="M94 0H0V94H94V0Z" fill="white"/>
</mask>
<g mask="url(#mask0_1768_377)">
<path d="M1.70957 0.651001H92.0506H92.9546V1.55798V91.893V92.798H92.0506H1.70957H0.80957V91.893V1.55798V0.651001H1.70957Z" stroke="#272E31" stroke-width="1.624" stroke-miterlimit="10"/>
</g>
<mask id="mask1_1768_377" style="mask-type:luminance" maskUnits="userSpaceOnUse" x="0" y="0" width="94" height="94">
<path d="M94 0H0V94H94V0Z" fill="white"/>
</mask>
<g mask="url(#mask1_1768_377)">
<path d="M55.1991 17.392C55.1991 22.557 51.0121 26.747 45.8471 26.747C40.6811 26.747 36.4961 22.557 36.4961 17.392C36.4961 12.229 40.6811 8.04199 45.8471 8.04199C51.0121 8.04199 55.1991 12.229 55.1991 17.392Z" fill="#272E31"/>
</g>
<mask id="mask2_1768_377" style="mask-type:luminance" maskUnits="userSpaceOnUse" x="0" y="0" width="94" height="94">
<path d="M94 0H0V94H94V0Z" fill="white"/>
</mask>
<g mask="url(#mask2_1768_377)">
<path d="M57.5283 43.659C49.1713 39.543 39.1943 39.543 30.8383 43.659L29.2233 40.383C38.5893 35.768 49.7743 35.768 59.1423 40.383L57.5283 43.659ZM77.0023 48.84V48.838C76.3843 47.053 74.9843 43.927 72.0133 40.706L77.4443 34.895C73.2523 30.969 66.9813 30.662 62.4573 33.821C56.9533 31.349 50.4983 29.92 43.6953 29.92C24.5113 29.92 11.8193 41.288 11.8193 55.32C11.8193 63.147 15.4963 70.133 22.0653 74.79L24.0263 85.214H35.5563V79.284C39.1533 80.024 43.1703 80.496 47.1833 80.496C49.2383 80.496 51.4553 80.306 53.6473 79.994V85.214H65.1833L67.5283 72.724C80.2363 71.043 84.3823 62.659 84.3823 56.227V51.804C80.8753 52.278 78.1753 51.664 77.0023 48.84Z" fill="#272E31"/>
</g>
</svg>
