<svg width="87" height="87" viewBox="0 0 87 87" fill="none" xmlns="http://www.w3.org/2000/svg">
<g clip-path="url(#clip0_1768_387)">
<mask id="mask0_1768_387" style="mask-type:luminance" maskUnits="userSpaceOnUse" x="-112" y="-134" width="200" height="393">
<path d="M87.352 -133.999H-111.998V258.263H87.352V-133.999Z" fill="white"/>
</mask>
<g mask="url(#mask0_1768_387)">
<path d="M2.29292 0.931H85.7169H86.5499V1.767V85.189V86.024H85.7169H2.29292H1.46191V85.189V1.767V0.931H2.29292Z" stroke="#272E31" stroke-width="1.4997" stroke-miterlimit="10"/>
</g>
<mask id="mask1_1768_387" style="mask-type:luminance" maskUnits="userSpaceOnUse" x="-112" y="-134" width="200" height="393">
<path d="M87.352 -133.999H-111.998V258.263H87.352V-133.999Z" fill="white"/>
</mask>
<g mask="url(#mask1_1768_387)">
<path d="M60.4511 54.979V14.445C60.4511 10.837 57.5161 7.89899 53.9071 7.89899C50.3011 7.89899 47.3631 10.837 47.3631 14.445V54.979C43.4261 57.246 40.7691 61.5 40.7691 66.365C40.7691 73.608 46.6601 79.505 53.9071 79.505C61.1541 79.505 67.0491 73.608 67.0491 66.365C67.0491 61.5 64.3841 57.246 60.4511 54.979ZM26.0371 32.255H20.2921V24.879H12.9121V19.137H20.2921V11.759H26.0371V19.137H33.4131V24.879H26.0371V32.255ZM33.4131 54.338H12.9141V48.595H33.4131V54.338ZM74.7521 21.144H62.8971V18.593H74.7521V21.144ZM74.7521 26.893H62.8971V24.336H74.7521V26.893ZM74.7521 32.636H62.8971V30.085H74.7521V32.636ZM74.7521 38.385H62.8971V35.828H74.7521V38.385ZM74.7521 44.126H62.8971V41.575H74.7521V44.126ZM74.7521 49.875H62.8971V47.322H74.7521V49.875ZM53.9071 75.357C48.9491 75.357 44.9171 71.319 44.9171 66.365C44.9171 62.236 47.7141 58.75 51.5151 57.699V18.699H56.3041V57.699C60.1001 58.75 62.8971 62.236 62.8971 66.365C62.8971 71.319 58.8651 75.357 53.9071 75.357Z" fill="#272E31"/>
</g>
</g>
<defs>
<clipPath id="clip0_1768_387">
<rect width="87" height="87" fill="white"/>
</clipPath>
</defs>
</svg>
